REM DIRINDEX 1\2\4,1\2\5,1\3\6,1\3\7,1\3\8
REM DIRNAME cjc094,folder01,folder02,folder03,folder04,folder05,folder06,folder07
TITLE ""
FILE "LV1_018_WORDS.mp3" MP3
  TRACK 01 AUDIO
    TITLE "0:"
    INDEX 01 00:00:00
  TRACK 02 AUDIO
    TITLE "6:cjc094_0684"
    INDEX 01 00:00:03
  TRACK 03 AUDIO
    TITLE "0:"
    INDEX 01 00:02:12
  TRACK 04 AUDIO
    TITLE "7:cjc094_0685"
    INDEX 01 00:02:69
  TRACK 05 AUDIO
    TITLE "0:"
    INDEX 01 00:03:70
  TRACK 06 AUDIO
    TITLE "8:cjc094_0686"
    INDEX 01 00:04:09
  TRACK 07 AUDIO
    TITLE "0:"
    INDEX 01 00:05:07
  TRACK 08 AUDIO
    TITLE "7:cjc094_0687"
    INDEX 01 00:05:59
  TRACK 09 AUDIO
    TITLE "0:"
    INDEX 01 00:06:51
  TRACK 10 AUDIO
    TITLE "8:cjc094_0688"
    INDEX 01 00:06:71
  TRACK 11 AUDIO
    TITLE "0:"
    INDEX 01 00:09:12
  TRACK 12 AUDIO
    TITLE "7:cjc094_0689"
    INDEX 01 00:09:57
  TRACK 13 AUDIO
    TITLE "0:"
    INDEX 01 00:10:49
  TRACK 14 AUDIO
    TITLE "8:cjc094_0690"
    INDEX 01 00:10:68
  TRACK 15 AUDIO
    TITLE "0:"
    INDEX 01 00:12:63
  TRACK 16 AUDIO
    TITLE "7:cjc094_0691"
    INDEX 01 00:13:39
  TRACK 17 AUDIO
    TITLE "0:"
    INDEX 01 00:14:33
  TRACK 18 AUDIO
    TITLE "8:cjc094_0692"
    INDEX 01 00:14:51
  TRACK 19 AUDIO
    TITLE "0:"
    INDEX 01 00:15:58
  TRACK 20 AUDIO
    TITLE "7:cjc094_0693"
    INDEX 01 00:16:36
  TRACK 21 AUDIO
    TITLE "0:"
    INDEX 01 00:17:45
  TRACK 22 AUDIO
    TITLE "8:cjc094_0694"
    INDEX 01 00:17:61
  TRACK 23 AUDIO
    TITLE "0:"
    INDEX 01 00:20:45
  TRACK 24 AUDIO
    TITLE "7:cjc094_0695"
    INDEX 01 00:21:17
  TRACK 25 AUDIO
    TITLE "0:"
    INDEX 01 00:22:13
  TRACK 26 AUDIO
    TITLE "8:cjc094_0696"
    INDEX 01 00:22:32
  TRACK 27 AUDIO
    TITLE "0:"
    INDEX 01 00:27:28
  TRACK 28 AUDIO
    TITLE "7:cjc094_0697"
    INDEX 01 00:28:02
  TRACK 29 AUDIO
    TITLE "0:"
    INDEX 01 00:29:19
  TRACK 30 AUDIO
    TITLE "8:cjc094_0698"
    INDEX 01 00:29:34
  TRACK 31 AUDIO
    TITLE "0:"
    INDEX 01 00:30:24
  TRACK 32 AUDIO
    TITLE "7:cjc094_0699"
    INDEX 01 00:30:65
  TRACK 33 AUDIO
    TITLE "0:"
    INDEX 01 00:31:63
  TRACK 34 AUDIO
    TITLE "8:cjc094_0700"
    INDEX 01 00:32:01
  TRACK 35 AUDIO
    TITLE "0:"
    INDEX 01 00:34:67
  TRACK 36 AUDIO
    TITLE "7:cjc094_0701"
    INDEX 01 00:35:37
  TRACK 37 AUDIO
    TITLE "0:"
    INDEX 01 00:36:50
  TRACK 38 AUDIO
    TITLE "8:cjc094_0702"
    INDEX 01 00:36:68
  TRACK 39 AUDIO
    TITLE "0:"
    INDEX 01 00:38:06
  TRACK 40 AUDIO
    TITLE "7:cjc094_0703"
    INDEX 01 00:38:57
  TRACK 41 AUDIO
    TITLE "0:"
    INDEX 01 00:39:68
  TRACK 42 AUDIO
    TITLE "8:cjc094_0704"
    INDEX 01 00:40:07
  TRACK 43 AUDIO
    TITLE "0:"
    INDEX 01 00:43:46
  TRACK 44 AUDIO
    TITLE "7:cjc094_0705"
    INDEX 01 00:44:20
  TRACK 45 AUDIO
    TITLE "0:"
    INDEX 01 00:45:22
  TRACK 46 AUDIO
    TITLE "8:cjc094_0706"
    INDEX 01 00:45:33
  TRACK 47 AUDIO
    TITLE "0:"
    INDEX 01 00:46:49
  TRACK 48 AUDIO
    TITLE "7:cjc094_0707"
    INDEX 01 00:47:27
  TRACK 49 AUDIO
    TITLE "0:"
    INDEX 01 00:48:24
  TRACK 50 AUDIO
    TITLE "8:cjc094_0708"
    INDEX 01 00:48:38
  TRACK 51 AUDIO
    TITLE "0:"
    INDEX 01 00:51:22
  TRACK 52 AUDIO
    TITLE "7:cjc094_0709"
    INDEX 01 00:52:00
  TRACK 53 AUDIO
    TITLE "0:"
    INDEX 01 00:53:00
  TRACK 54 AUDIO
    TITLE "8:cjc094_0710"
    INDEX 01 00:53:15
  TRACK 55 AUDIO
    TITLE "0:"
    INDEX 01 00:56:63
  TRACK 56 AUDIO
    TITLE "7:cjc094_0711"
    INDEX 01 00:57:37
  TRACK 57 AUDIO
    TITLE "0:"
    INDEX 01 00:58:42
  TRACK 58 AUDIO
    TITLE "8:cjc094_0712"
    INDEX 01 00:58:60
  TRACK 59 AUDIO
    TITLE "0:"
    INDEX 01 00:59:61
